<?xml version="1.0" encoding="UTF-8" standalone="no"?>
<!-- Created with Inkscape (http://www.inkscape.org/) -->

<svg
   version="1.1"
   id="svg1"
   width="24"
   height="24"
   viewBox="0 0 24 24"
   sodipodi:docname="big-game-config.svg"
   xml:space="preserve"
   inkscape:export-filename="ashy_terminal.svg"
   inkscape:export-xdpi="96"
   inkscape:export-ydpi="96"
   xmlns:inkscape="http://www.inkscape.org/namespaces/inkscape"
   xmlns:sodipodi="http://sodipodi.sourceforge.net/DTD/sodipodi-0.dtd"
   xmlns:xlink="http://www.w3.org/1999/xlink"
   xmlns="http://www.w3.org/2000/svg"
   xmlns:svg="http://www.w3.org/2000/svg"><defs
     id="defs1"><linearGradient
       id="linearGradient13"
       inkscape:collect="always"><stop
         style="stop-color:#4d4d4d;stop-opacity:1"
         offset="0"
         id="stop13" /><stop
         style="stop-color:#4d4d4d;stop-opacity:1"
         offset="0.99886966"
         id="stop4" /><stop
         style="stop-color:#1c1c24;stop-opacity:1"
         offset="0.99989998"
         id="stop15" /><stop
         style="stop-color:#02bf64;stop-opacity:1"
         offset="1"
         id="stop14" /></linearGradient><linearGradient
       inkscape:collect="always"
       xlink:href="#linearGradient13"
       id="linearGradient14"
       x1="18"
       y1="18"
       x2="4.0022731"
       y2="3.8294725"
       gradientUnits="userSpaceOnUse"
       gradientTransform="scale(1.3333333)" /><inkscape:path-effect
       effect="fill_between_many"
       method="originald"
       linkedpaths="#path2-7-6,0,1|"
       id="path-effect2" /></defs><sodipodi:namedview
     id="namedview1"
     pagecolor="#ffffff"
     bordercolor="#000000"
     borderopacity="0.25"
     inkscape:showpageshadow="2"
     inkscape:pageopacity="0.0"
     inkscape:pagecheckerboard="0"
     inkscape:deskcolor="#d1d1d1"><inkscape:page
       x="0"
       y="0"
       inkscape:label="1"
       id="page1"
       width="24"
       height="24"
       margin="0"
       bleed="0" /></sodipodi:namedview><g
     id="g1"
     inkscape:groupmode="layer"
     inkscape:label="1"><path
       id="path3"
       d="M 7.5986668,1.0000005 H 16.401333 C 20.057333,1.0000005 23,3.9426671 23,7.598667 v 8.802667 C 23,20.057334 20.057333,23 16.401333,23 H 7.5986668 C 3.9426669,23 1.0000003,20.057334 1.0000003,16.401334 V 7.598667 c 0,-3.6559999 2.9426666,-6.5986665 6.5986665,-6.5986665 z"
       style="fill:url(#linearGradient14);fill-opacity:1;stroke:none;stroke-width:1.33333" /><path
       inkscape:original-d="M 0,0"
       inkscape:path-effect="#path-effect2"
       d="m 15.158664,6.7949395 c -0.698252,-0.0077 -1.355727,0.186938 -1.903031,0.581597 -1.281562,0.924126 -1.320539,0.932085 -1.923583,0.445957 -0.499845,-0.402936 -1.167214,-0.758386 -1.6831361,-0.898082 -0.511396,-0.138469 -1.4365025,-0.138051 -1.9502985,0 -1.2743623,0.3424 -2.3552895,1.251065 -3.0086811,2.527785 -0.9596866,1.8752085 -0.9504997,4.1273475 0.026716,6.0194155 0.6751041,1.307125 1.8159666,2.204503 3.1895301,2.511344 0.6887645,0.153862 1.4694775,0.08302 2.2154096,-0.201401 0.518474,-0.197698 0.508243,-0.163469 0.240448,-0.717233 -0.264783,-0.547537 -0.307912,-0.887096 -0.135638,-1.095374 0.518479,-0.626834 2.013836,-0.805618 2.918257,-0.347314 0.574342,0.291042 0.662498,0.68385 0.318542,1.428302 -0.113784,0.246275 -0.207566,0.467486 -0.207566,0.491171 v 0.0021 0.0021 0.0021 c 0.0423,0.09145 0.728617,0.34755 1.194018,0.441849 1.100663,0.223022 2.28607,-0.08879 3.319003,-0.871367 0.9428,-0.714292 1.625695,-1.86064 1.942079,-3.265569 0.146932,-0.652455 0.17261,-1.911403 0.05343,-2.577106 C 19.641321,10.589047 19.333217,9.7310715 19.01405,9.1933995 18.658331,8.5941515 17.806535,7.7117325 17.302144,7.4198415 16.596391,7.0114255 15.856916,6.8027555 15.158663,6.7950875 Z"
       id="path4"
       style="fill:#ffffff" /><path
       id="path2-7-6"
       style="fill:#ffffff;fill-opacity:1;stroke-width:0.00531987"
       d="m 15.311725,6.9480007 c -0.698252,-0.0077 -1.355727,0.186938 -1.903031,0.581597 -1.281562,0.924126 -1.320539,0.932085 -1.923583,0.445957 -0.499845,-0.402936 -1.167214,-0.758386 -1.6831359,-0.898082 -0.511396,-0.138469 -1.4365025,-0.138051 -1.9502985,0 -1.2743623,0.3424 -2.3552895,1.251065 -3.0086811,2.527785 -0.9596866,1.8752083 -0.9504997,4.1273473 0.026716,6.0194153 0.6751041,1.307125 1.8159666,2.204503 3.1895301,2.511344 0.6887645,0.153862 1.4694775,0.08302 2.2154094,-0.201401 0.518474,-0.197698 0.508243,-0.163469 0.240448,-0.717233 -0.264783,-0.547537 -0.307912,-0.887096 -0.135638,-1.095374 0.518479,-0.626834 2.013836,-0.805618 2.918257,-0.347314 0.574342,0.291042 0.662498,0.68385 0.318542,1.428302 -0.113784,0.246275 -0.207566,0.467486 -0.207566,0.491171 v 0.0021 0.0021 0.0021 c 0.0423,0.09145 0.728617,0.34755 1.194018,0.441849 1.100663,0.223022 2.28607,-0.08879 3.319003,-0.871367 0.9428,-0.714292 1.625695,-1.86064 1.942079,-3.265569 0.146932,-0.652455 0.17261,-1.911403 0.05343,-2.577106 -0.122842,-0.686167 -0.430946,-1.5441423 -0.750113,-2.0818143 -0.355719,-0.599248 -1.207515,-1.481667 -1.711906,-1.773558 -0.705753,-0.408416 -1.445228,-0.617086 -2.143481,-0.624754 z m -7.8258594,2.17225 h 0.0021 0.0021 c 8.43e-4,6.6e-5 0.0053,-4e-5 0.0062,0 -0.03112,0.108122 -0.06719,0.21284 -0.110976,0.316488 -0.04138,0.11756 -0.06763,0.241614 -0.0781,0.365809 -0.04647,0.186131 -0.07959,0.3740613 -0.09659,0.5651553 0.01281,0.194152 -0.01316,0.397291 0.01438,0.593926 0.0088,0.140433 0.03735,0.278355 0.08426,0.411022 0.02104,0.08574 0.06214,0.167259 0.117141,0.236338 0.06559,0.0762 0.15149,0.130403 0.248668,0.156188 0.07674,-0.0019 0.153645,-0.01226 0.228118,-0.03083 0.182153,-0.08386 0.350134,-0.194911 0.499391,-0.328817 0.131141,-0.09666 0.2703455,-0.18016 0.4171885,-0.250724 0.219282,-0.114317 0.47384,-0.142645 0.713123,-0.08015 0.323526,0.09307 0.6210619,0.257807 0.8713659,0.482952 0.119105,0.104022 0.225424,0.222059 0.316487,0.351423 0.224236,0.328587 0.339367,0.720373 0.326763,1.117979 0.01407,0.122133 0.0017,0.245009 -0.037,0.3617 -0.09174,0.474061 -0.291409,0.921089 -0.581597,1.307049 -0.135323,0.18072 -0.285955,0.348585 -0.4521239,0.501447 -0.06153,0.09378 -0.146845,0.170646 -0.246613,0.221951 -0.40429,0.311587 -0.895571,0.488852 -1.4056965,0.507612 -0.16379,-0.02765 -0.332431,-0.03242 -0.497331,-0.05343 -0.186753,-0.04465 -0.363907,-0.123185 -0.521976,-0.232225 C 7.0605496,15.433389 6.8636371,15.176549 6.7256074,14.886888 6.5119917,14.475556 6.3966698,14.020644 6.3885698,13.557232 c 0.00958,-0.156682 0.031146,-0.312954 0.063712,-0.466509 0.072098,0.142563 0.1260514,0.294031 0.1602978,0.450068 0.076233,0.197015 0.1813453,0.380554 0.314432,0.544604 0.191025,0.256167 0.471306,0.430525 0.785052,0.491172 0.120061,0.02417 0.244233,0.02914 0.365809,0.01438 0.342451,-0.03019 0.6672355,-0.159065 0.9371305,-0.371974 0.0905,-0.0774 0.19208,-0.135934 0.26922,-0.224007 0.09197,-0.09859 0.178151,-0.202376 0.258944,-0.310322 0.243641,-0.320067 0.413524,-0.689628 0.4973369,-1.083043 0.01282,-0.166266 0.03789,-0.30843 0.04932,-0.466509 -0.02823,-0.112539 0.01884,-0.252894 -0.08426,-0.330872 -0.07764,-0.01766 -0.1607499,-0.01 -0.2342839,0.02055 -0.197717,0.101792 -0.382501,0.22489 -0.552824,0.367865 -0.20361,0.119006 -0.363828,0.292195 -0.5631,0.425407 -0.1093145,0.05908 -0.1849805,0.146702 -0.2959355,0.205512 -0.203357,0.144644 -0.422076,0.267546 -0.651471,0.365809 -0.175803,0.07121 -0.368738,0.08993 -0.55488,0.05343 -0.10948,-0.03216 -0.210044,-0.0876 -0.29799,-0.160299 -0.087945,-0.0727 -0.1615566,-0.161572 -0.2137318,-0.26305 -0.1443031,-0.302186 -0.227466,-0.629652 -0.2486682,-0.963846 -0.010101,-0.170117 0.031661,-0.331813 0.039048,-0.515833 0.1133785,-0.567635 0.3081132,-1.114324 0.579541,-1.6255913 0.09649,-0.178412 0.215908,-0.344175 0.353479,-0.493226 0.04254,-0.03705 0.0699,-0.09002 0.121251,-0.100697 z m 8.5369284,0.0185 c 0.163757,0.02757 0.332115,0.03202 0.497337,0.05138 0.186424,0.04621 0.363615,0.125575 0.521998,0.234284 0.245633,0.205271 0.44452,0.460723 0.585706,0.7480583 0.215247,0.411285 0.330883,0.867558 0.337038,1.331711 -0.0095,0.156682 -0.03118,0.312955 -0.06371,0.466511 -0.07113,-0.142974 -0.125026,-0.294325 -0.160298,-0.45007 -0.0767,-0.19722 -0.182825,-0.380575 -0.316487,-0.544604 -0.19385,-0.254731 -0.476309,-0.42769 -0.791217,-0.485005 -0.119984,-0.02388 -0.24211,-0.02979 -0.363755,-0.01645 -0.342461,0.03154 -0.668832,0.161303 -0.939185,0.374029 -0.09018,0.07576 -0.193498,0.144122 -0.26922,0.224007 -0.09174,0.09887 -0.17775,0.20263 -0.258944,0.310322 -0.238696,0.318825 -0.406557,0.685617 -0.491171,1.074822 -0.0098,0.158352 -0.03554,0.306799 -0.04727,0.46651 0.02658,0.112264 -0.01881,0.250838 0.08426,0.328818 0.07767,0.01847 0.15885,0.01081 0.232228,-0.02055 0.197269,-0.101781 0.38213,-0.223882 0.552825,-0.36581 0.205574,-0.120366 0.363876,-0.294251 0.5631,-0.427463 0.109333,-0.05908 0.183572,-0.136459 0.295935,-0.203456 0.203034,-0.145074 0.421859,-0.268015 0.65147,-0.365809 0.175774,-0.07132 0.368749,-0.09004 0.55488,-0.05343 0.109822,0.0337 0.212304,0.08827 0.300046,0.162353 0.08764,0.07409 0.15813,0.166648 0.209621,0.26922 0.144313,0.302186 0.22952,0.627596 0.250723,0.961791 0.0101,0.170117 -0.03171,0.331812 -0.03905,0.515833 -0.112558,0.566198 -0.30782,1.114213 -0.579541,1.623536 -0.09653,0.178383 -0.215909,0.344224 -0.35348,0.493226 -0.04543,0.03957 -0.07701,0.09308 -0.133582,0.09865 0.03098,-0.108161 0.067,-0.212917 0.110976,-0.316486 0.03996,-0.117443 0.06745,-0.240195 0.0781,-0.363755 0.04651,-0.18613 0.07753,-0.376126 0.09453,-0.56721 -0.01446,-0.194436 0.01257,-0.396322 -0.0185,-0.591872 -0.0083,-0.141253 -0.03589,-0.280108 -0.08426,-0.413077 -0.01984,-0.08579 -0.05999,-0.165574 -0.115087,-0.234282 -0.06546,-0.07678 -0.151547,-0.132853 -0.248668,-0.160299 -0.0766,0.0027 -0.15347,0.0131 -0.228117,0.03083 -0.182125,0.08387 -0.350097,0.194912 -0.499392,0.328818 -0.131415,0.09755 -0.27151,0.182234 -0.419243,0.252778 -0.218959,0.113378 -0.472566,0.140512 -0.711067,0.07809 -0.323311,-0.09371 -0.620652,-0.258372 -0.871367,-0.48295 -0.119104,-0.104601 -0.225523,-0.223598 -0.316487,-0.353479 -0.222087,-0.327512 -0.334078,-0.716426 -0.318543,-1.111814 -0.01495,-0.122134 -0.0025,-0.24725 0.037,-0.363754 0.08793,-0.471933 0.282396,-0.916501 0.56721,-1.30294 0.140405,-0.179096 0.295915,-0.346683 0.466511,-0.4973363 0.0552,-0.09788 0.13795,-0.175558 0.238392,-0.226062 0.405091,-0.310707 0.897528,-0.489204 1.407751,-0.507613 z m -3.99719,0.435685 c 0.08849,0.0024 0.176584,0.01591 0.263054,0.037 0.172942,0.04217 0.334424,0.120545 0.474731,0.230172 0.0981,0.100487 0.170539,0.2226863 0.209621,0.3575893 0.01974,0.08433 0.01974,0.172578 0,0.256889 -0.01974,0.08431 -0.05803,0.163352 -0.113031,0.230173 -0.117835,0.153096 -0.2742,0.272176 -0.452124,0.347313 -0.177923,0.07514 -0.371304,0.102507 -0.5631,0.08015 -0.179096,-0.0081 -0.354506,-0.06106 -0.507612,-0.154134 -0.09566,-0.05626 -0.177623,-0.132523 -0.240448,-0.224006 -0.06292,-0.09148 -0.105032,-0.194658 -0.123307,-0.304157 -0.0081,-0.08174 0.0024,-0.164758 0.02877,-0.242503 0.02647,-0.07776 0.06918,-0.149746 0.125362,-0.2096203 0.15721,-0.201061 0.381868,-0.336289 0.632974,-0.382251 0.08749,-0.01638 0.176624,-0.025 0.265109,-0.0226 z m 0.05138,1.7365683 c 0.0337,0.0017 0.06748,0.0063 0.100697,0.01233 0.135813,0.03139 0.263039,0.08894 0.376085,0.170574 0.08354,0.04958 0.155781,0.11919 0.207566,0.201401 0.05178,0.08221 0.08182,0.176562 0.09043,0.27333 -0.03732,0.220064 -0.05186,0.442821 -0.04316,0.665855 0.06928,0.461701 0.265686,0.895434 0.565155,1.253616 0.130928,0.222468 0.331475,0.39202 0.462401,0.614478 -0.251497,-0.04988 -0.498506,-0.118671 -0.73984,-0.205511 -0.296636,-0.100308 -0.571707,-0.253516 -0.813824,-0.452124 -0.141381,-0.10358 -0.269393,-0.224255 -0.37814,-0.361699 -0.180567,-0.200336 -0.325564,-0.431392 -0.429523,-0.68024 -0.127702,-0.286554 -0.182088,-0.599504 -0.160299,-0.912468 0.02726,-0.111131 0.07252,-0.216947 0.135638,-0.312376 0.08862,-0.101834 0.203463,-0.179307 0.330873,-0.224008 0.0637,-0.02235 0.128499,-0.03583 0.195235,-0.0411 0.03337,-0.0026 0.067,-0.0038 0.100697,-0.0021 z"
       transform="translate(-0.15306122,-0.15306122)" /><path
       style="fill:#ffffff;fill-opacity:1;stroke-width:0.00531987"
       d="M 11.257162,20.812218 C 7.3689608,20.515485 4.1596671,18.435867 2.9249785,15.412975 2.2142043,13.672782 2.1673365,11.971545 2.7793991,10.128649 2.9864953,9.5050917 3.1578414,9.1960387 3.7116218,8.4472157 4.3567062,7.5749326 4.4660989,7.218567 4.6092182,5.5231461 4.6581462,4.9436255 4.7266224,4.3123916 4.7614044,4.1204033 4.8277782,3.754048 5.0368494,3.1395044 5.0951138,3.1395044 c 0.01874,0 0.369269,0.3267172 0.7789569,0.7260395 0.8274524,0.8065152 1.1934564,1.0839309 1.5858932,1.2020369 0.3128007,0.094142 0.5779004,0.048865 1.2726085,-0.2173321 1.8566186,-0.711419 4.5585056,-0.693928 6.7232876,0.04352 0.341358,0.1162867 0.714125,0.2116649 0.828372,0.2119511 0.378192,9.48e-4 0.787883,-0.2751903 1.691551,-1.1401287 0.474695,-0.45435 0.884796,-0.8260916 0.911333,-0.8260916 0.07846,0 0.103717,0.1396911 0.288621,1.5959623 0.241253,1.9000853 0.396623,2.6086813 0.673962,3.0737039 0.06786,0.1137856 0.316651,0.474418 0.552866,0.801405 0.503638,0.697175 0.790437,1.287544 0.992769,2.0435943 0.711715,2.659445 -0.115699,5.57091 -2.144941,7.547514 -1.52702,1.487411 -3.767625,2.418958 -6.277141,2.609769 -0.858477,0.06527 -0.870735,0.06528 -1.71609,7.65e-4 z m 1.197679,-1.324492 c 0.106318,-0.170491 0.270941,-0.520519 0.365826,-0.77784 l 0.172518,-0.467854 0.342466,0.164835 c 0.644049,0.309993 1.21981,0.4151 2.088093,0.381189 0.623671,-0.02436 0.861342,-0.0603 1.243865,-0.188151 2.391432,-0.799237 3.931509,-3.160106 3.93056,-6.025369 C 20.597751,11.316997 20.360611,10.286316 19.82676,9.2217747 18.894966,7.363696 17.393182,6.315046 15.539719,6.2282665 14.482176,6.1787493 13.773171,6.3437515 13.069451,6.8031448 12.084433,7.4461697 11.94117,7.4617099 11.208626,7.0049903 10.088569,6.3066672 9.6289694,6.1759851 8.4843694,6.2303836 6.6376199,6.3181595 5.1869207,7.2805783 4.2335496,9.0504737 3.397954,10.601724 3.1681121,12.735155 3.6381329,14.577231 c 0.4285835,1.679676 1.4546566,3.014516 2.8626052,3.724019 1.2339973,0.621846 2.2467233,0.655191 4.0194599,0.132349 l 0.472879,-0.139469 0.13965,0.431025 c 0.169982,0.524639 0.461338,1.02613 0.650932,1.120406 0.228573,0.113658 0.451161,-0.0051 0.671182,-0.357835 z"
       id="path3-3-5" /><path
       style="fill:#02bf64;stroke:none;stroke-width:0.358794"
       d="m 10.293654,10.835027 c -0.3175581,8.95e-4 -0.6310074,0.109835 -0.754225,0.430554 -0.090594,0.235801 -0.035122,0.563583 -0.035122,0.813266 v 1.698295 c 0,0.355335 -0.098644,0.858758 0.1513801,1.147182 0.2743637,0.316501 0.7904679,0.216237 1.1641989,0.216237 1.027368,0 2.058658,0.02652 3.085632,-3.51e-4 0.564577,-0.01478 0.59799,-0.577895 0.59799,-1.004274 v -1.98533 c 0,-0.312579 0.05893,-0.694065 -0.09149,-0.980705 -0.153374,-0.292271 -0.448177,-0.334874 -0.745698,-0.334874 0,-0.579453 -0.01234,-1.1680963 -0.337034,-1.6743753 -0.521376,-0.8129599 -1.881412,-0.9355291 -2.52614,-0.1912649 -0.44689,0.5158829 -0.509492,1.2138772 -0.509492,1.8656402 m 2.774677,0 h -2.176687 c 0,-0.515676 -0.0081,-1.1317273 0.386867,-1.5267043 0.399875,-0.3998467 1.171307,-0.3526112 1.514043,0.09153 0.275333,0.356794 0.356239,1.0017773 0.275777,1.4351783 M 12.47034,14.11202 h -0.861107 c 0.03289,-0.260025 0.175436,-0.65268 0.115224,-0.908005 -0.02194,-0.09303 -0.122663,-0.148059 -0.181871,-0.216569 -0.102782,-0.11893 -0.16038,-0.29723 -0.141616,-0.454122 0.07212,-0.602959 0.92474,-0.771612 1.176215,-0.191357 0.07858,0.181326 0.04732,0.434635 -0.05827,0.597973 -0.05161,0.07984 -0.163587,0.145199 -0.18235,0.241355 -0.05214,0.267212 0.09949,0.659691 0.133773,0.930725 z"
       id="path2" /></g></svg>
